<svg width="15" height="14" viewBox="0 0 15 14" fill="none"><path d="M10.366 7.66683C10.866 7.66683 11.306 7.3935 11.5327 6.98016L13.9193 2.6535C14.166 2.2135 13.846 1.66683 13.3393 1.66683H3.47268L2.84602 0.333496H0.666016V1.66683H1.99935L4.39935 6.72683L3.49935 8.3535C3.01268 9.24683 3.65268 10.3335 4.66602 10.3335H12.666V9.00016H4.66602L5.39935 7.66683H10.366ZM4.10602 3.00016H12.206L10.366 6.3335H5.68602L4.10602 3.00016ZM4.66602 11.0002C3.93268 11.0002 3.33935 11.6002 3.33935 12.3335C3.33935 13.0668 3.93268 13.6668 4.66602 13.6668C5.39935 13.6668 5.99935 13.0668 5.99935 12.3335C5.99935 11.6002 5.39935 11.0002 4.66602 11.0002ZM11.3327 11.0002C10.5993 11.0002 10.006 11.6002 10.006 12.3335C10.006 13.0668 10.5993 13.6668 11.3327 13.6668C12.066 13.6668 12.666 13.0668 12.666 12.3335C12.666 11.6002 12.066 11.0002 11.3327 11.0002Z" fill="black"/></svg>