<svg width="14" height="13" viewBox="0 0 14 13" fill="none"><path d="M10.0007 0C8.84065 0 7.72732 0.54 7.00065 1.39333C6.27398 0.54 5.16065 0 4.00065 0C1.94732 0 0.333984 1.61333 0.333984 3.66667C0.333984 6.18667 2.60065 8.24 6.03398 11.36L7.00065 12.2333L7.96732 11.3533C11.4007 8.24 13.6673 6.18667 13.6673 3.66667C13.6673 1.61333 12.054 0 10.0007 0ZM7.06732 10.3667L7.00065 10.4333L6.93398 10.3667C3.76065 7.49333 1.66732 5.59333 1.66732 3.66667C1.66732 2.33333 2.66732 1.33333 4.00065 1.33333C5.02732 1.33333 6.02732 1.99333 6.38065 2.90667H7.62732C7.97398 1.99333 8.97398 1.33333 10.0007 1.33333C11.334 1.33333 12.334 2.33333 12.334 3.66667C12.334 5.59333 10.2407 7.49333 7.06732 10.3667Z" fill="black"/></svg>