<svg width="20" height="17" viewBox="0 0 20 17" fill="none" xmlns="http://www.w3.org/2000/svg"><path d="M2.80605 8.25217C2.3777 7.82371 2.0459 7.30861 1.83292 6.74143C1.61993 6.17424 1.53067 5.56807 1.57113 4.96357C1.61158 4.35906 1.78081 3.77019 2.06748 3.23644C2.35414 2.7027 2.75161 2.23641 3.23324 1.86884C3.71486 1.50128 4.2695 1.24094 4.85998 1.10527C5.45045 0.969609 6.0631 0.961759 6.65686 1.08225C7.25062 1.20274 7.81175 1.44878 8.30263 1.80389C8.79351 2.15899 9.2028 2.61494 9.50305 3.14117H10.621C10.9213 2.61494 11.3306 2.15899 11.8215 1.80389C12.3123 1.44878 12.8735 1.20274 13.4672 1.08225C14.061 0.961759 14.6736 0.969609 15.2641 1.10527C15.8546 1.24094 16.4092 1.50128 16.8909 1.86884C17.3725 2.23641 17.7699 2.7027 18.0566 3.23644C18.3433 3.77019 18.5125 4.35906 18.553 4.96357C18.5934 5.56807 18.5042 6.17424 18.2912 6.74143C18.0782 7.30861 17.7464 7.82371 17.318 8.25217L10.062 15.5102L2.80605 8.25317V8.25217ZM18.024 8.96217C18.5362 8.44999 18.9368 7.83738 19.2007 7.16287C19.4646 6.48836 19.5861 5.76653 19.5575 5.0428C19.5289 4.31906 19.3509 3.60907 19.0346 2.95747C18.7183 2.30587 18.2706 1.72677 17.7197 1.25658C17.1687 0.786395 16.5265 0.435294 15.8333 0.22536C15.1401 0.015427 14.4109 -0.0487965 13.6917 0.0367289C12.9724 0.122254 12.2787 0.355678 11.654 0.722321C11.0294 1.08896 10.4874 1.58089 10.062 2.16717C9.63673 1.58089 9.09471 1.08896 8.47006 0.722321C7.84541 0.355678 7.15165 0.122254 6.43242 0.0367289C5.71319 -0.0487965 4.98404 0.015427 4.29083 0.22536C3.59762 0.435294 2.95534 0.786395 2.4044 1.25658C1.85346 1.72677 1.40577 2.30587 1.08949 2.95747C0.77321 3.60907 0.595177 4.31906 0.566591 5.0428C0.538004 5.76653 0.659483 6.48836 0.923386 7.16287C1.18729 7.83738 1.58791 8.44999 2.10005 8.96217L10.062 16.9232L18.024 8.96317V8.96217Z" fill="black"/></svg>