<svg width="40" height="40" viewBox="0 0 40 40" fill="none"><path d="M20 0C8.97211 0 0 8.97211 0 20C0 31.0279 8.97211 40 20 40C31.0279 40 40 31.0279 40 20C40 8.97211 31.0279 0 20 0ZM27.1817 24.3096C26.3644 25.3058 23.3654 28.0096 20 30.4163C16.6346 28.0125 13.6356 25.3058 12.8183 24.3096C10.8952 21.9663 9.97404 19.5596 10.001 16.9538C10.0308 13.9673 12.426 11.5375 15.3404 11.5375C17.4558 11.5375 18.9269 12.7308 19.7817 13.726L20 13.9904L20.2183 13.726C21.0577 12.7202 22.5404 11.5385 24.6596 11.5385C27.574 11.5385 29.9692 13.9683 29.999 16.9548C30.026 19.5596 29.1038 21.9663 27.1817 24.3096Z" fill="#1F1F1F"/></svg>