<svg width="12" height="12" viewBox="0 0 12 12" fill="none"><path d="M6.00001 1.08108C7.60207 1.08108 7.79184 1.0872 8.42451 1.11606C9.00951 1.14274 9.3272 1.24048 9.53863 1.32265C9.81869 1.43149 10.0186 1.56151 10.2285 1.77146C10.4385 1.98143 10.5685 2.1813 10.6773 2.46136C10.7595 2.67279 10.8573 2.99048 10.8839 3.57547C10.9128 4.20815 10.9189 4.39792 10.9189 5.99997C10.9189 7.60204 10.9128 7.79181 10.8839 8.42449C10.8573 9.00948 10.7595 9.32717 10.6773 9.5386C10.5685 9.81866 10.4385 10.0185 10.2285 10.2285C10.0186 10.4384 9.81869 10.5685 9.53863 10.6773C9.3272 10.7595 9.00951 10.8572 8.42451 10.8839C7.79193 10.9128 7.60218 10.9189 6.00001 10.9189C4.39782 10.9189 4.20809 10.9128 3.57549 10.8839C2.99049 10.8572 2.6728 10.7595 2.46137 10.6773C2.18131 10.5685 1.98143 10.4384 1.77149 10.2285C1.56154 10.0185 1.4315 9.81866 1.32266 9.5386C1.24049 9.32717 1.14274 9.00948 1.11607 8.42449C1.0872 7.79181 1.08108 7.60204 1.08108 5.99997C1.08108 4.39792 1.0872 4.20815 1.11607 3.57547C1.14274 2.99048 1.24049 2.67279 1.32266 2.46136C1.4315 2.1813 1.56152 1.98143 1.77149 1.77148C1.98143 1.56151 2.18131 1.43149 2.46137 1.32265C2.6728 1.24048 2.99049 1.14274 3.57549 1.11606C4.20816 1.0872 4.39794 1.08108 6.00001 1.08108ZM6.00001 0C4.3705 0 4.16617 0.00690692 3.52621 0.0361065C2.88758 0.0652346 2.45142 0.166671 2.06977 0.314979C1.67522 0.468313 1.34061 0.673472 1.00703 1.00703C0.673474 1.34061 0.468314 1.67521 0.315004 2.06976C0.166672 2.45141 0.0652349 2.88757 0.0361066 3.5262C0.00690694 4.16616 0 4.37048 0 5.99997C0 7.62948 0.00690694 7.8338 0.0361066 8.47376C0.0652349 9.11239 0.166672 9.54855 0.315004 9.93019C0.468314 10.3247 0.673474 10.6593 1.00703 10.9929C1.34061 11.3265 1.67522 11.5316 2.06977 11.685C2.45142 11.8333 2.88758 11.9347 3.52621 11.9639C4.16617 11.9931 4.3705 12 6.00001 12C7.6295 12 7.83383 11.9931 8.47379 11.9639C9.11242 11.9347 9.54858 11.8333 9.93023 11.685C10.3248 11.5316 10.6594 11.3265 10.993 10.9929C11.3265 10.6593 11.5317 10.3247 11.685 9.93019C11.8333 9.54855 11.9348 9.11239 11.9639 8.47376C11.9931 7.8338 12 7.62948 12 5.99997C12 4.37048 11.9931 4.16616 11.9639 3.5262C11.9348 2.88757 11.8333 2.45141 11.685 2.06976C11.5317 1.67521 11.3265 1.34061 10.993 1.00703C10.6594 0.673472 10.3248 0.468313 9.93023 0.314979C9.54858 0.166671 9.11242 0.0652346 8.47379 0.0361065C7.83383 0.00690692 7.6295 0 6.00001 0Z" fill="#EAE7DF"/><path d="M6.00297 2.92188C4.30131 2.92188 2.92188 4.30131 2.92188 6.00293C2.92188 7.70458 4.30131 9.08401 6.00297 9.08401C7.7046 9.08401 9.08403 7.70458 9.08403 6.00293C9.08403 4.30131 7.7046 2.92188 6.00297 2.92188ZM6.00297 8.00294C4.89838 8.00294 4.00295 7.10752 4.00295 6.00293C4.00295 4.89837 4.89838 4.00295 6.00297 4.00295C7.10753 4.00295 8.00295 4.89837 8.00295 6.00293C8.00295 7.10752 7.10753 8.00294 6.00297 8.00294Z" fill="#EAE7DF"/><path d="M9.92633 2.79814C9.92633 3.19576 9.60397 3.51812 9.20632 3.51812C8.80869 3.51812 8.48633 3.19576 8.48633 2.79814C8.48633 2.40049 8.80869 2.07812 9.20632 2.07812C9.60397 2.07812 9.92633 2.40049 9.92633 2.79814Z" fill="#EAE7DF"/></svg>