<svg width="51" height="51" viewBox="0 0 51 51" fill="none" xmlns="http://www.w3.org/2000/svg"><path d="M25.334 30.668C39.1407 30.668 50.334 35.8913 50.334 42.3346V50.668H0.333984V42.3346C0.333984 35.8913 11.5273 30.668 25.334 30.668ZM47.0006 42.3346C47.0006 37.7346 37.3007 34.0013 25.334 34.0013C13.3673 34.0013 3.66732 37.7346 3.66732 42.3346V47.3346H47.0006V42.3346ZM25.334 0.667969C28.4282 0.667969 31.3956 1.89713 33.5836 4.08506C35.7715 6.27298 37.0006 9.24044 37.0006 12.3346C37.0006 15.4288 35.7715 18.3963 33.5836 20.5842C31.3956 22.7721 28.4282 24.0013 25.334 24.0013C22.2398 24.0013 19.2723 22.7721 17.0844 20.5842C14.8965 18.3963 13.6673 15.4288 13.6673 12.3346C13.6673 9.24044 14.8965 6.27298 17.0844 4.08506C19.2723 1.89713 22.2398 0.667969 25.334 0.667969ZM25.334 4.0013C23.1238 4.0013 21.0042 4.87928 19.4414 6.44208C17.8786 8.00488 17.0007 10.1245 17.0007 12.3346C17.0007 14.5448 17.8786 16.6644 19.4414 18.2272C21.0042 19.79 23.1238 20.668 25.334 20.668C27.5441 20.668 29.6637 19.79 31.2265 18.2272C32.7893 16.6644 33.6673 14.5448 33.6673 12.3346C33.6673 10.1245 32.7893 8.00488 31.2265 6.44208C29.6637 4.87928 27.5441 4.0013 25.334 4.0013Z" fill="black"/></svg>