<svg width="12" height="6" viewBox="0 0 12 6" fill="none"><path fill-rule="evenodd" clip-rule="evenodd" d="M0.579991 5.43253C0.60499 5.43253 0.625985 5.4122 0.629652 5.38387L0.763315 4.3299L0.629652 3.25226C0.625652 3.22359 0.60499 3.20392 0.579991 3.20392C0.554325 3.20392 0.53332 3.22426 0.53032 3.25259L0.411986 4.3299L0.53032 5.38353C0.533653 5.4122 0.554325 5.43253 0.579991 5.43253ZM0.136328 5.03188C0.160661 5.03188 0.180665 5.01254 0.184331 4.98521L0.288332 4.3299L0.184331 3.66325C0.180665 3.63558 0.160994 3.61658 0.136328 3.61658C0.111329 3.61658 0.0913333 3.63591 0.0880001 3.66358L0 4.33023L0.0880001 4.98521C0.0913333 5.01288 0.111329 5.03188 0.136328 5.03188ZM1.11131 3.0516C1.10764 3.0176 1.08264 2.99293 1.05131 2.99293C1.01965 2.99293 0.99397 3.0176 0.99097 3.0516C0.99097 3.05193 0.878973 4.33023 0.878973 4.33023L0.99097 5.56186C0.99397 5.59653 1.01965 5.62086 1.05131 5.62086C1.08264 5.62086 1.10764 5.59652 1.11131 5.56219L1.23897 4.33023L1.11131 3.0516ZM1.52663 5.67019C1.5633 5.67019 1.59363 5.64086 1.59696 5.60153L1.71695 4.33089L1.59696 3.0166C1.59363 2.9776 1.5633 2.9476 1.52663 2.9476C1.4893 2.9476 1.4593 2.97726 1.4563 3.01693L1.35063 4.33089L1.4563 5.60153C1.4593 5.64086 1.4893 5.67019 1.52663 5.67019ZM2.00561 5.69119C2.04861 5.69119 2.08328 5.65719 2.08661 5.61186L2.08628 5.61219L2.19994 4.33089L2.08628 3.1116C2.08328 3.06693 2.04861 3.0326 2.00561 3.0326C1.96261 3.0326 1.92828 3.06693 1.92528 3.11226L1.82562 4.33089L1.92528 5.61219C1.92795 5.65719 1.96261 5.69119 2.00561 5.69119ZM2.68559 4.33123L2.57993 2.34828C2.57693 2.29795 2.53727 2.25829 2.48927 2.25829C2.4406 2.25829 2.4006 2.29795 2.3986 2.34828L2.30494 4.33123L2.3986 5.61252C2.40094 5.66252 2.44094 5.70219 2.48927 5.70219C2.5376 5.70219 2.57727 5.66286 2.57993 5.61219V5.61286L2.68559 4.33123ZM2.97558 5.70419C3.02958 5.70419 3.07425 5.66019 3.07692 5.60419V5.60519L3.17592 4.33156L3.07692 1.89496C3.07425 1.83896 3.02958 1.79496 2.97558 1.79496C2.92125 1.79496 2.87692 1.83896 2.87458 1.89496C2.87458 1.89529 2.78659 4.33156 2.78659 4.33156L2.87458 5.60452C2.87692 5.66019 2.92125 5.70419 2.97558 5.70419ZM3.46624 1.58163C3.40558 1.58163 3.35691 1.6303 3.35491 1.6923L3.27324 4.33156L3.35491 5.59186C3.35691 5.65319 3.40558 5.70186 3.46624 5.70186C3.52624 5.70186 3.5749 5.65319 3.57757 5.59119V5.59219L3.66923 4.33156L3.57757 1.6923C3.57523 1.6303 3.52624 1.58163 3.46624 1.58163ZM3.96089 5.70419C4.02689 5.70419 4.08056 5.65153 4.08256 5.58353V5.58419L4.16756 4.33189L4.08256 1.6033C4.08056 1.5353 4.02689 1.48231 3.96089 1.48231C3.89456 1.48231 3.84123 1.5353 3.83956 1.6033L3.76357 4.33189L3.83956 5.58419C3.8409 5.65153 3.89456 5.70419 3.96089 5.70419ZM4.45954 5.70286C4.53121 5.70286 4.58954 5.64552 4.59121 5.57152V5.57286L4.66954 4.33156L4.59121 1.67264C4.58954 1.5993 4.53121 1.54164 4.45954 1.54164C4.38721 1.54164 4.32888 1.5993 4.32755 1.67297L4.25821 4.33156L4.32755 5.57219C4.32888 5.64552 4.38721 5.70286 4.45954 5.70286ZM5.17519 4.33223L5.10353 1.7703C5.10186 1.69097 5.03953 1.62897 4.96153 1.62897C4.88353 1.62897 4.82087 1.6913 4.8192 1.7703L4.7562 4.33223L4.8192 5.56486C4.82087 5.64319 4.8832 5.70552 4.96153 5.70552C5.0392 5.70552 5.10186 5.64319 5.10353 5.5642V5.56486L5.17519 4.33223ZM5.46818 5.70786C5.55018 5.70786 5.61885 5.63986 5.61985 5.55619V5.55719L5.68418 4.33256L5.61985 1.28398C5.61885 1.20032 5.55018 1.13198 5.46818 1.13198C5.38518 1.13198 5.31685 1.20032 5.31585 1.28398L5.25818 4.33156C5.25818 4.33389 5.31585 5.55719 5.31585 5.55719C5.31685 5.63986 5.38518 5.70786 5.46818 5.70786ZM5.97216 0.845989C5.88317 0.845989 5.81051 0.918656 5.80951 1.00799L5.74284 4.3329L5.80951 5.53953C5.81051 5.62786 5.8835 5.70019 5.97216 5.70019C6.06016 5.70019 6.13317 5.62752 6.13417 5.53853V5.53953L6.20649 4.3329L6.13417 1.00765C6.13317 0.91832 6.06016 0.845989 5.97216 0.845989ZM6.43316 5.70886C6.43683 5.70919 10.4977 5.71152 10.524 5.71152C11.339 5.71152 12 5.05054 12 4.23523C12 3.41992 11.3393 2.75927 10.524 2.75927C10.322 2.75927 10.129 2.80027 9.95339 2.8736C9.83606 1.54331 8.72043 0.5 7.3598 0.5C7.02681 0.5 6.70248 0.565667 6.41583 0.676331C6.30416 0.719663 6.27483 0.763994 6.27383 0.849991V5.53453C6.27483 5.62486 6.3445 5.69986 6.43316 5.70886Z" fill="#EAE7DF"/></svg>