<svg width="24" height="11" viewBox="0 0 24 11" fill="none"><path fill-rule="evenodd" clip-rule="evenodd" d="M1.15998 9.86506C1.20998 9.86506 1.25197 9.8244 1.2593 9.76773L1.52663 7.65979L1.2593 5.50452C1.2513 5.44719 1.20998 5.40785 1.15998 5.40785C1.10865 5.40785 1.06664 5.44851 1.06064 5.50518L0.823972 7.65979L1.06064 9.76706C1.06731 9.8244 1.10865 9.86506 1.15998 9.86506ZM0.272657 9.06376C0.321322 9.06376 0.361329 9.02509 0.368662 8.97042L0.576664 7.65979L0.368662 6.3265C0.361329 6.27116 0.321989 6.23316 0.272657 6.23316C0.222658 6.23316 0.182667 6.27182 0.176 6.32716L0 7.66045L0.176 8.97042C0.182667 9.02576 0.222658 9.06376 0.272657 9.06376ZM2.22261 5.10319C2.21528 5.03519 2.16529 4.98586 2.10262 4.98586C2.03929 4.98586 1.98794 5.03519 1.98194 5.10319C1.98194 5.10386 1.75795 7.66045 1.75795 7.66045L1.98194 10.1237C1.98794 10.1931 2.03929 10.2417 2.10262 10.2417C2.16529 10.2417 2.21528 10.193 2.22261 10.1244L2.47794 7.66045L2.22261 5.10319ZM3.05326 10.3404C3.12659 10.3404 3.18725 10.2817 3.19392 10.2031L3.4339 7.66179L3.19392 5.0332C3.18725 4.9552 3.12659 4.8952 3.05326 4.8952C2.97859 4.8952 2.9186 4.95453 2.9126 5.03386L2.70126 7.66179L2.9126 10.2031C2.9186 10.2817 2.97859 10.3404 3.05326 10.3404ZM4.01122 10.3824C4.09722 10.3824 4.16656 10.3144 4.17322 10.2237L4.17255 10.2244L4.39988 7.66179L4.17255 5.22319C4.16655 5.13386 4.09722 5.0652 4.01122 5.0652C3.92522 5.0652 3.85656 5.13386 3.85056 5.22453L3.65124 7.66179L3.85056 10.2244C3.85589 10.3144 3.92522 10.3824 4.01122 10.3824ZM5.37119 7.66246L5.15987 3.69656C5.15387 3.5959 5.07454 3.51658 4.97854 3.51658C4.88121 3.51658 4.80121 3.5959 4.79721 3.69656L4.60988 7.66246L4.79721 10.225C4.80188 10.325 4.88188 10.4044 4.97854 10.4044C5.0752 10.4044 5.15454 10.3257 5.15987 10.2244V10.2257L5.37119 7.66246ZM5.95117 10.4084C6.05917 10.4084 6.14851 10.3204 6.15384 10.2084V10.2104L6.35183 7.66312L6.15384 2.78992C6.14851 2.67792 6.05917 2.58992 5.95117 2.58992C5.8425 2.58992 5.75383 2.67792 5.74917 2.78992C5.74917 2.79059 5.57319 7.66312 5.57319 7.66312L5.74917 10.209C5.75383 10.3204 5.8425 10.4084 5.95117 10.4084ZM6.93248 2.16327C6.81115 2.16327 6.71381 2.2606 6.70981 2.3846L6.54649 7.66312L6.70981 10.1837C6.71381 10.3064 6.81115 10.4037 6.93248 10.4037C7.05248 10.4037 7.1498 10.3064 7.15513 10.1824V10.1844L7.33846 7.66312L7.15513 2.3846C7.15047 2.2606 7.05248 2.16327 6.93248 2.16327ZM7.92178 10.4084C8.05377 10.4084 8.16112 10.3031 8.16512 10.1671V10.1684L8.33511 7.66379L8.16512 2.2066C8.16112 2.07061 8.05377 1.96462 7.92178 1.96462C7.78911 1.96462 7.68246 2.07061 7.67913 2.2066L7.52713 7.66379L7.67913 10.1684C7.68179 10.3031 7.78911 10.4084 7.92178 10.4084ZM8.91908 10.4057C9.06241 10.4057 9.17909 10.291 9.18242 10.1431V10.1457L9.33907 7.66312L9.18242 2.34527C9.17909 2.19861 9.06241 2.08328 8.91908 2.08328C8.77442 2.08328 8.65776 2.1986 8.65509 2.34593L8.51642 7.66312L8.65509 10.1444C8.65776 10.291 8.77442 10.4057 8.91908 10.4057ZM10.3504 7.66446L10.2071 2.5406C10.2037 2.38194 10.0791 2.25794 9.92306 2.25794C9.76707 2.25794 9.64174 2.3826 9.6384 2.5406L9.51241 7.66446L9.6384 10.1297C9.64174 10.2864 9.7664 10.411 9.92306 10.411C10.0784 10.411 10.2037 10.2864 10.2071 10.1284V10.1297L10.3504 7.66446ZM10.9364 10.4157C11.1004 10.4157 11.2377 10.2797 11.2397 10.1124V10.1144L11.3684 7.66512L11.2397 1.56796C11.2377 1.40063 11.1004 1.26396 10.9364 1.26396C10.7704 1.26396 10.6337 1.40063 10.6317 1.56796L10.5164 7.66312C10.5164 7.66778 10.6317 10.1144 10.6317 10.1144C10.6337 10.2797 10.7704 10.4157 10.9364 10.4157ZM11.9443 0.691977C11.7663 0.691977 11.621 0.837312 11.619 1.01597L11.4857 7.66579L11.619 10.0791C11.621 10.2557 11.767 10.4004 11.9443 10.4004C12.1203 10.4004 12.2663 10.255 12.2683 10.0771V10.0791L12.413 7.66579L12.2683 1.0153C12.2663 0.83664 12.1203 0.691977 11.9443 0.691977ZM12.8663 10.4177C12.8737 10.4184 20.9954 10.423 21.0481 10.423C22.678 10.423 24 9.10109 24 7.47047C24 5.83984 22.6787 4.51854 21.0481 4.51854C20.6441 4.51854 20.2581 4.60054 19.9068 4.7472C19.6721 2.08661 17.4409 0 14.7196 0C14.0536 0 13.405 0.131334 12.8317 0.352662C12.6083 0.439326 12.5497 0.527987 12.5477 0.699983V10.0691C12.5497 10.2497 12.689 10.3997 12.8663 10.4177Z" fill="white"/></svg>