<svg width="20" height="18" viewBox="0 0 20 18" fill="none"><path d="M19.9005 5.89L18.8505 1.52C18.6305 0.62 17.8505 0 16.9405 0H3.0505C2.1505 0 1.3605 0.63 1.1505 1.52L0.100495 5.89C-0.139505 6.91 0.080495 7.95 0.720495 8.77C0.800495 8.88 0.910495 8.96 1.00049 9.06V16C1.00049 17.1 1.90049 18 3.00049 18H17.0005C18.1005 18 19.0005 17.1 19.0005 16V9.06C19.0905 8.97 19.2005 8.88 19.2805 8.78C19.9205 7.96 20.1505 6.91 19.9005 5.89ZM16.9105 1.99L17.9605 6.36C18.0605 6.78 17.9705 7.2 17.7105 7.53C17.5705 7.71 17.2705 8 16.7705 8C16.1605 8 15.6305 7.51 15.5605 6.86L14.9805 2L16.9105 1.99ZM11.0005 2H12.9605L13.5005 6.52C13.5505 6.91 13.4305 7.3 13.1705 7.59C12.9505 7.85 12.6305 8 12.2205 8C11.5505 8 11.0005 7.41 11.0005 6.69V2ZM6.49049 6.52L7.04049 2H9.00049V6.69C9.00049 7.41 8.45049 8 7.71049 8C7.37049 8 7.06049 7.85 6.82049 7.59C6.57049 7.3 6.45049 6.91 6.49049 6.52ZM2.04049 6.36L3.0505 2H5.02049L4.4405 6.86C4.3605 7.51 3.8405 8 3.23049 8C2.74049 8 2.4305 7.71 2.3005 7.53C2.0305 7.21 1.94049 6.78 2.04049 6.36ZM3.00049 16V9.97C3.08049 9.98 3.1505 10 3.23049 10C4.10049 10 4.89049 9.64 5.47049 9.05C6.07049 9.65 6.87049 10 7.78049 10C8.65049 10 9.4305 9.64 10.0105 9.07C10.6005 9.64 11.4005 10 12.3005 10C13.1405 10 13.9405 9.65 14.5405 9.05C15.1205 9.64 15.9105 10 16.7805 10C16.8605 10 16.9305 9.98 17.0105 9.97V16H3.00049Z" fill="#1F1F1F" /></svg>