<svg width="14" height="10" viewBox="0 0 14 10" fill="none"><path fill-rule="evenodd" clip-rule="evenodd" d="M12.6502 1.18903C12.8498 1.38858 12.9936 1.63693 13.0673 1.90934C13.4917 3.61786 13.3937 6.31621 13.0755 8.09066C13.0018 8.36307 12.858 8.61141 12.6585 8.81096C12.4589 9.01051 12.2106 9.15431 11.9382 9.22802C10.9409 9.5 6.92719 9.5 6.92719 9.5C6.92719 9.5 2.91346 9.5 1.9162 9.22802C1.64379 9.15431 1.39545 9.01051 1.19589 8.81096C0.996345 8.61141 0.852553 8.36307 0.77884 8.09066C0.351917 6.38956 0.46895 3.68956 0.770599 1.91758C0.844311 1.64517 0.988103 1.39682 1.18765 1.19727C1.3872 0.997725 1.63555 0.853932 1.90796 0.780222C2.90521 0.50824 6.91895 0.5 6.91895 0.5C6.91895 0.5 10.9327 0.5 11.9299 0.771977C12.2023 0.845692 12.4507 0.989485 12.6502 1.18903ZM8.97115 5L5.64148 6.92857V3.07142L8.97115 5Z" fill="#EAE7DF"/></svg>